# xmcd CD database file
#
# Track frame offsets:
#	150
#	57225
#	91480
#	114563
#	156328
#	186507
#
# Disc length: 3110 seconds
#
# Revision: 0
# Processed by: cddbd v1.5.2PL0 Copyright (c) Steve Scherf et al.
# Submitted via: CDex 1.70beta2
#
DISCID=500c2406
DTITLE=Anouar Brahem - Souvenance - CD 1
DYEAR=2014
DGENRE=Jazz
TTITLE0=Improbable day
TTITLE1=Ashen sky
TTITLE2=Deliverance
TTITLE3=Souvenance
TTITLE4=Tunis at dawn
TTITLE5=Youssef's song
EXTD=YEAR: 2014
EXTT0=
EXTT1=
EXTT2=
EXTT3=
EXTT4=
EXTT5=
PLAYORDER=
